<svg xmlns="http://www.w3.org/2000/svg" viewBox="0 0 1200 630">
  <rect width="1200" height="630" fill="#F8F9FF"/>
  <rect x="90" y="80" width="430" height="430" rx="18" fill="#FFFFFF" stroke="#9B99CC" stroke-width="6"/>
  <g stroke="#E0E0F0" stroke-width="3">
    <path d="M138 80v430M186 80v430M282 80v430M330 80v430M426 80v430M474 80v430"/>
    <path d="M90 128h430M90 176h430M90 272h430M90 320h430M90 416h430M90 464h430"/>
  </g>
  <g stroke="#9B99CC" stroke-width="6">
    <path d="M234 80v430M378 80v430M90 224h430M90 368h430"/>
  </g>
  <text x="305" y="337" text-anchor="middle" font-size="92" font-family="Arial" font-weight="700" fill="#6C63FF">9</text>
  <text x="590" y="235" font-size="76" font-family="Arial" font-weight="800" fill="#1A1A2E">Қазақ Судоку</text>
  <text x="594" y="300" font-size="34" font-family="Arial" fill="#6B7280">Задача дня, рейтинг и ИИ-подсказки</text>
  <text x="594" y="365" font-size="40" font-family="Arial" font-weight="700" fill="#00A8CC">💎 🔥 🧠</text>
</svg>
