<svg xmlns="http://www.w3.org/2000/svg" viewBox="0 0 100 100" width="100" height="100">
  <g fill="currentColor">
  <rect x="46" y="20" width="1" height="1"/>
  <rect x="45" y="21" width="2" height="1"/>
  <rect x="45" y="22" width="3" height="1"/>
  <rect x="45" y="23" width="3" height="1"/>
  <rect x="45" y="24" width="3" height="1"/>
  <rect x="45" y="25" width="3" height="1"/>
  <rect x="45" y="26" width="3" height="1"/>
  <rect x="45" y="27" width="3" height="1"/>
  <rect x="45" y="28" width="3" height="1"/>
  <rect x="38" y="29" width="5" height="1"/>
  <rect x="45" y="29" width="3" height="1"/>
  <rect x="49" y="29" width="5" height="1"/>
  <rect x="40" y="30" width="4" height="1"/>
  <rect x="45" y="30" width="2" height="1"/>
  <rect x="48" y="30" width="4" height="1"/>
  <rect x="41" y="31" width="10" height="1"/>
  <rect x="42" y="32" width="9" height="1"/>
  <rect x="43" y="33" width="7" height="1"/>
  <rect x="33" y="34" width="6" height="1"/>
  <rect x="43" y="34" width="6" height="1"/>
  <rect x="54" y="34" width="5" height="1"/>
  <rect x="32" y="35" width="8" height="1"/>
  <rect x="44" y="35" width="5" height="1"/>
  <rect x="53" y="35" width="8" height="1"/>
  <rect x="32" y="36" width="3" height="1"/>
  <rect x="37" y="36" width="3" height="1"/>
  <rect x="44" y="36" width="5" height="1"/>
  <rect x="52" y="36" width="4" height="1"/>
  <rect x="58" y="36" width="3" height="1"/>
  <rect x="31" y="37" width="2" height="1"/>
  <rect x="38" y="37" width="2" height="1"/>
  <rect x="44" y="37" width="5" height="1"/>
  <rect x="52" y="37" width="3" height="1"/>
  <rect x="59" y="37" width="3" height="1"/>
  <rect x="31" y="38" width="2" height="1"/>
  <rect x="38" y="38" width="3" height="1"/>
  <rect x="44" y="38" width="5" height="1"/>
  <rect x="52" y="38" width="2" height="1"/>
  <rect x="60" y="38" width="2" height="1"/>
  <rect x="31" y="39" width="2" height="1"/>
  <rect x="38" y="39" width="2" height="1"/>
  <rect x="44" y="39" width="2" height="1"/>
  <rect x="47" y="39" width="2" height="1"/>
  <rect x="52" y="39" width="3" height="1"/>
  <rect x="60" y="39" width="2" height="1"/>
  <rect x="31" y="40" width="2" height="1"/>
  <rect x="38" y="40" width="2" height="1"/>
  <rect x="43" y="40" width="3" height="1"/>
  <rect x="47" y="40" width="2" height="1"/>
  <rect x="53" y="40" width="2" height="1"/>
  <rect x="60" y="40" width="2" height="1"/>
  <rect x="31" y="41" width="2" height="1"/>
  <rect x="38" y="41" width="1" height="1"/>
  <rect x="43" y="41" width="2" height="1"/>
  <rect x="47" y="41" width="3" height="1"/>
  <rect x="54" y="41" width="1" height="1"/>
  <rect x="60" y="41" width="2" height="1"/>
  <rect x="31" y="42" width="2" height="1"/>
  <rect x="43" y="42" width="2" height="1"/>
  <rect x="48" y="42" width="2" height="1"/>
  <rect x="59" y="42" width="3" height="1"/>
  <rect x="31" y="43" width="3" height="1"/>
  <rect x="42" y="43" width="3" height="1"/>
  <rect x="48" y="43" width="3" height="1"/>
  <rect x="59" y="43" width="2" height="1"/>
  <rect x="23" y="44" width="5" height="1"/>
  <rect x="31" y="44" width="5" height="1"/>
  <rect x="41" y="44" width="3" height="1"/>
  <rect x="49" y="44" width="3" height="1"/>
  <rect x="57" y="44" width="4" height="1"/>
  <rect x="65" y="44" width="4" height="1"/>
  <rect x="20" y="45" width="23" height="1"/>
  <rect x="49" y="45" width="24" height="1"/>
  <rect x="19" y="46" width="24" height="1"/>
  <rect x="50" y="46" width="24" height="1"/>
  <rect x="18" y="47" width="3" height="1"/>
  <rect x="30" y="47" width="12" height="1"/>
  <rect x="51" y="47" width="12" height="1"/>
  <rect x="71" y="47" width="4" height="1"/>
  <rect x="17" y="48" width="3" height="1"/>
  <rect x="31" y="48" width="10" height="1"/>
  <rect x="52" y="48" width="10" height="1"/>
  <rect x="72" y="48" width="4" height="1"/>
  <rect x="18" y="49" width="4" height="1"/>
  <rect x="30" y="49" width="12" height="1"/>
  <rect x="51" y="49" width="12" height="1"/>
  <rect x="71" y="49" width="4" height="1"/>
  <rect x="19" y="50" width="6" height="1"/>
  <rect x="26" y="50" width="17" height="1"/>
  <rect x="50" y="50" width="24" height="1"/>
  <rect x="20" y="51" width="23" height="1"/>
  <rect x="49" y="51" width="23" height="1"/>
  <rect x="23" y="52" width="4" height="1"/>
  <rect x="31" y="52" width="4" height="1"/>
  <rect x="41" y="52" width="3" height="1"/>
  <rect x="49" y="52" width="3" height="1"/>
  <rect x="57" y="52" width="4" height="1"/>
  <rect x="66" y="52" width="4" height="1"/>
  <rect x="31" y="53" width="3" height="1"/>
  <rect x="42" y="53" width="3" height="1"/>
  <rect x="48" y="53" width="3" height="1"/>
  <rect x="59" y="53" width="3" height="1"/>
  <rect x="31" y="54" width="2" height="1"/>
  <rect x="43" y="54" width="2" height="1"/>
  <rect x="47" y="54" width="3" height="1"/>
  <rect x="59" y="54" width="3" height="1"/>
  <rect x="31" y="55" width="2" height="1"/>
  <rect x="43" y="55" width="2" height="1"/>
  <rect x="47" y="55" width="3" height="1"/>
  <rect x="60" y="55" width="2" height="1"/>
  <rect x="31" y="56" width="2" height="1"/>
  <rect x="38" y="56" width="2" height="1"/>
  <rect x="44" y="56" width="2" height="1"/>
  <rect x="47" y="56" width="2" height="1"/>
  <rect x="53" y="56" width="2" height="1"/>
  <rect x="60" y="56" width="2" height="1"/>
  <rect x="31" y="57" width="2" height="1"/>
  <rect x="38" y="57" width="2" height="1"/>
  <rect x="44" y="57" width="2" height="1"/>
  <rect x="47" y="57" width="2" height="1"/>
  <rect x="52" y="57" width="3" height="1"/>
  <rect x="60" y="57" width="2" height="1"/>
  <rect x="31" y="58" width="2" height="1"/>
  <rect x="39" y="58" width="2" height="1"/>
  <rect x="44" y="58" width="5" height="1"/>
  <rect x="52" y="58" width="2" height="1"/>
  <rect x="60" y="58" width="2" height="1"/>
  <rect x="31" y="59" width="3" height="1"/>
  <rect x="38" y="59" width="2" height="1"/>
  <rect x="44" y="59" width="5" height="1"/>
  <rect x="52" y="59" width="3" height="1"/>
  <rect x="59" y="59" width="2" height="1"/>
  <rect x="31" y="60" width="4" height="1"/>
  <rect x="37" y="60" width="3" height="1"/>
  <rect x="44" y="60" width="5" height="1"/>
  <rect x="52" y="60" width="4" height="1"/>
  <rect x="58" y="60" width="3" height="1"/>
  <rect x="32" y="61" width="8" height="1"/>
  <rect x="44" y="61" width="5" height="1"/>
  <rect x="53" y="61" width="8" height="1"/>
  <rect x="33" y="62" width="6" height="1"/>
  <rect x="43" y="62" width="6" height="1"/>
  <rect x="54" y="62" width="5" height="1"/>
  <rect x="43" y="63" width="7" height="1"/>
  <rect x="42" y="64" width="9" height="1"/>
  <rect x="41" y="65" width="11" height="1"/>
  <rect x="40" y="66" width="4" height="1"/>
  <rect x="45" y="66" width="2" height="1"/>
  <rect x="48" y="66" width="5" height="1"/>
  <rect x="39" y="67" width="4" height="1"/>
  <rect x="45" y="67" width="3" height="1"/>
  <rect x="50" y="67" width="4" height="1"/>
  <rect x="45" y="68" width="3" height="1"/>
  <rect x="45" y="69" width="3" height="1"/>
  <rect x="45" y="70" width="3" height="1"/>
  <rect x="45" y="71" width="3" height="1"/>
  <rect x="45" y="72" width="3" height="1"/>
  <rect x="45" y="73" width="3" height="1"/>
  <rect x="45" y="74" width="3" height="1"/>
  <rect x="45" y="75" width="2" height="1"/>
  <rect x="46" y="76" width="1" height="1"/>
  </g>
</svg>