<svg xmlns="http://www.w3.org/2000/svg" viewBox="0 0 100 100" width="100" height="100">
  <g fill="currentColor">
  <rect x="47" y="33" width="1" height="1"/>
  <rect x="47" y="34" width="2" height="1"/>
  <rect x="46" y="35" width="3" height="1"/>
  <rect x="34" y="36" width="8" height="1"/>
  <rect x="46" y="36" width="3" height="1"/>
  <rect x="53" y="36" width="9" height="1"/>
  <rect x="33" y="37" width="10" height="1"/>
  <rect x="46" y="37" width="3" height="1"/>
  <rect x="52" y="37" width="11" height="1"/>
  <rect x="31" y="38" width="6" height="1"/>
  <rect x="38" y="38" width="6" height="1"/>
  <rect x="46" y="38" width="3" height="1"/>
  <rect x="51" y="38" width="6" height="1"/>
  <rect x="59" y="38" width="5" height="1"/>
  <rect x="30" y="39" width="4" height="1"/>
  <rect x="41" y="39" width="4" height="1"/>
  <rect x="46" y="39" width="3" height="1"/>
  <rect x="50" y="39" width="5" height="1"/>
  <rect x="61" y="39" width="4" height="1"/>
  <rect x="30" y="40" width="3" height="1"/>
  <rect x="42" y="40" width="12" height="1"/>
  <rect x="62" y="40" width="3" height="1"/>
  <rect x="29" y="41" width="3" height="1"/>
  <rect x="43" y="41" width="10" height="1"/>
  <rect x="63" y="41" width="3" height="1"/>
  <rect x="29" y="42" width="3" height="1"/>
  <rect x="35" y="42" width="2" height="1"/>
  <rect x="43" y="42" width="9" height="1"/>
  <rect x="58" y="42" width="3" height="1"/>
  <rect x="63" y="42" width="3" height="1"/>
  <rect x="29" y="43" width="3" height="1"/>
  <rect x="36" y="43" width="3" height="1"/>
  <rect x="44" y="43" width="7" height="1"/>
  <rect x="57" y="43" width="2" height="1"/>
  <rect x="64" y="43" width="3" height="1"/>
  <rect x="29" y="44" width="3" height="1"/>
  <rect x="37" y="44" width="2" height="1"/>
  <rect x="44" y="44" width="7" height="1"/>
  <rect x="56" y="44" width="2" height="1"/>
  <rect x="64" y="44" width="3" height="1"/>
  <rect x="28" y="45" width="4" height="1"/>
  <rect x="38" y="45" width="1" height="1"/>
  <rect x="44" y="45" width="7" height="1"/>
  <rect x="56" y="45" width="2" height="1"/>
  <rect x="64" y="45" width="3" height="1"/>
  <rect x="28" y="46" width="4" height="1"/>
  <rect x="37" y="46" width="3" height="1"/>
  <rect x="45" y="46" width="5" height="1"/>
  <rect x="56" y="46" width="2" height="1"/>
  <rect x="63" y="46" width="4" height="1"/>
  <rect x="28" y="47" width="5" height="1"/>
  <rect x="37" y="47" width="2" height="1"/>
  <rect x="41" y="47" width="1" height="1"/>
  <rect x="45" y="47" width="6" height="1"/>
  <rect x="53" y="47" width="1" height="1"/>
  <rect x="56" y="47" width="2" height="1"/>
  <rect x="63" y="47" width="4" height="1"/>
  <rect x="28" y="48" width="2" height="1"/>
  <rect x="31" y="48" width="2" height="1"/>
  <rect x="36" y="48" width="3" height="1"/>
  <rect x="41" y="48" width="1" height="1"/>
  <rect x="45" y="48" width="6" height="1"/>
  <rect x="53" y="48" width="1" height="1"/>
  <rect x="56" y="48" width="3" height="1"/>
  <rect x="62" y="48" width="2" height="1"/>
  <rect x="65" y="48" width="2" height="1"/>
  <rect x="28" y="49" width="2" height="1"/>
  <rect x="32" y="49" width="6" height="1"/>
  <rect x="41" y="49" width="2" height="1"/>
  <rect x="45" y="49" width="2" height="1"/>
  <rect x="48" y="49" width="3" height="1"/>
  <rect x="53" y="49" width="1" height="1"/>
  <rect x="57" y="49" width="6" height="1"/>
  <rect x="65" y="49" width="3" height="1"/>
  <rect x="27" y="50" width="4" height="1"/>
  <rect x="34" y="50" width="3" height="1"/>
  <rect x="41" y="50" width="2" height="1"/>
  <rect x="45" y="50" width="2" height="1"/>
  <rect x="48" y="50" width="3" height="1"/>
  <rect x="53" y="50" width="2" height="1"/>
  <rect x="59" y="50" width="3" height="1"/>
  <rect x="64" y="50" width="4" height="1"/>
  <rect x="27" y="51" width="4" height="1"/>
  <rect x="40" y="51" width="2" height="1"/>
  <rect x="45" y="51" width="2" height="1"/>
  <rect x="49" y="51" width="1" height="1"/>
  <rect x="53" y="51" width="2" height="1"/>
  <rect x="64" y="51" width="4" height="1"/>
  <rect x="27" y="52" width="2" height="1"/>
  <rect x="30" y="52" width="2" height="1"/>
  <rect x="39" y="52" width="3" height="1"/>
  <rect x="45" y="52" width="1" height="1"/>
  <rect x="49" y="52" width="2" height="1"/>
  <rect x="53" y="52" width="3" height="1"/>
  <rect x="63" y="52" width="3" height="1"/>
  <rect x="67" y="52" width="2" height="1"/>
  <rect x="26" y="53" width="2" height="1"/>
  <rect x="30" y="53" width="3" height="1"/>
  <rect x="38" y="53" width="4" height="1"/>
  <rect x="44" y="53" width="2" height="1"/>
  <rect x="49" y="53" width="2" height="1"/>
  <rect x="54" y="53" width="3" height="1"/>
  <rect x="62" y="53" width="3" height="1"/>
  <rect x="67" y="53" width="2" height="1"/>
  <rect x="26" y="54" width="2" height="1"/>
  <rect x="31" y="54" width="10" height="1"/>
  <rect x="44" y="54" width="1" height="1"/>
  <rect x="50" y="54" width="2" height="1"/>
  <rect x="54" y="54" width="11" height="1"/>
  <rect x="68" y="54" width="2" height="1"/>
  <rect x="24" y="55" width="3" height="1"/>
  <rect x="32" y="55" width="8" height="1"/>
  <rect x="43" y="55" width="2" height="1"/>
  <rect x="50" y="55" width="2" height="1"/>
  <rect x="55" y="55" width="8" height="1"/>
  <rect x="68" y="55" width="3" height="1"/>
  <rect x="24" y="56" width="1" height="1"/>
  <rect x="34" y="56" width="4" height="1"/>
  <rect x="42" y="56" width="2" height="1"/>
  <rect x="51" y="56" width="2" height="1"/>
  <rect x="57" y="56" width="5" height="1"/>
  <rect x="71" y="56" width="1" height="1"/>
  <rect x="41" y="57" width="2" height="1"/>
  <rect x="52" y="57" width="2" height="1"/>
  <rect x="41" y="58" width="2" height="1"/>
  <rect x="51" y="58" width="3" height="1"/>
  <rect x="24" y="59" width="1" height="1"/>
  <rect x="33" y="59" width="6" height="1"/>
  <rect x="42" y="59" width="3" height="1"/>
  <rect x="51" y="59" width="2" height="1"/>
  <rect x="56" y="59" width="6" height="1"/>
  <rect x="69" y="59" width="3" height="1"/>
  <rect x="25" y="60" width="2" height="1"/>
  <rect x="32" y="60" width="8" height="1"/>
  <rect x="43" y="60" width="2" height="1"/>
  <rect x="50" y="60" width="2" height="1"/>
  <rect x="55" y="60" width="9" height="1"/>
  <rect x="69" y="60" width="2" height="1"/>
  <rect x="26" y="61" width="2" height="1"/>
  <rect x="31" y="61" width="10" height="1"/>
  <rect x="44" y="61" width="2" height="1"/>
  <rect x="50" y="61" width="1" height="1"/>
  <rect x="54" y="61" width="11" height="1"/>
  <rect x="68" y="61" width="2" height="1"/>
  <rect x="26" y="62" width="2" height="1"/>
  <rect x="30" y="62" width="3" height="1"/>
  <rect x="39" y="62" width="3" height="1"/>
  <rect x="44" y="62" width="2" height="1"/>
  <rect x="49" y="62" width="2" height="1"/>
  <rect x="53" y="62" width="3" height="1"/>
  <rect x="63" y="62" width="2" height="1"/>
  <rect x="67" y="62" width="2" height="1"/>
  <rect x="27" y="63" width="5" height="1"/>
  <rect x="40" y="63" width="2" height="1"/>
  <rect x="44" y="63" width="2" height="1"/>
  <rect x="49" y="63" width="2" height="1"/>
  <rect x="53" y="63" width="3" height="1"/>
  <rect x="64" y="63" width="5" height="1"/>
  <rect x="27" y="64" width="4" height="1"/>
  <rect x="40" y="64" width="2" height="1"/>
  <rect x="45" y="64" width="2" height="1"/>
  <rect x="49" y="64" width="1" height="1"/>
  <rect x="53" y="64" width="2" height="1"/>
  <rect x="64" y="64" width="4" height="1"/>
  <rect x="28" y="65" width="3" height="1"/>
  <rect x="33" y="65" width="4" height="1"/>
  <rect x="41" y="65" width="2" height="1"/>
  <rect x="45" y="65" width="2" height="1"/>
  <rect x="48" y="65" width="3" height="1"/>
  <rect x="53" y="65" width="2" height="1"/>
  <rect x="58" y="65" width="4" height="1"/>
  <rect x="65" y="65" width="3" height="1"/>
  <rect x="28" y="66" width="2" height="1"/>
  <rect x="32" y="66" width="6" height="1"/>
  <rect x="41" y="66" width="2" height="1"/>
  <rect x="45" y="66" width="5" height="1"/>
  <rect x="53" y="66" width="1" height="1"/>
  <rect x="57" y="66" width="7" height="1"/>
  <rect x="65" y="66" width="3" height="1"/>
  <rect x="28" y="67" width="2" height="1"/>
  <rect x="31" y="67" width="2" height="1"/>
  <rect x="36" y="67" width="3" height="1"/>
  <rect x="41" y="67" width="1" height="1"/>
  <rect x="45" y="67" width="5" height="1"/>
  <rect x="53" y="67" width="1" height="1"/>
  <rect x="56" y="67" width="3" height="1"/>
  <rect x="62" y="67" width="2" height="1"/>
  <rect x="65" y="67" width="2" height="1"/>
  <rect x="28" y="68" width="4" height="1"/>
  <rect x="37" y="68" width="2" height="1"/>
  <rect x="41" y="68" width="1" height="1"/>
  <rect x="45" y="68" width="6" height="1"/>
  <rect x="53" y="68" width="1" height="1"/>
  <rect x="56" y="68" width="2" height="1"/>
  <rect x="63" y="68" width="4" height="1"/>
  <rect x="28" y="69" width="4" height="1"/>
  <rect x="38" y="69" width="1" height="1"/>
  <rect x="45" y="69" width="5" height="1"/>
  <rect x="56" y="69" width="2" height="1"/>
  <rect x="63" y="69" width="4" height="1"/>
  <rect x="28" y="70" width="4" height="1"/>
  <rect x="37" y="70" width="2" height="1"/>
  <rect x="44" y="70" width="7" height="1"/>
  <rect x="56" y="70" width="2" height="1"/>
  <rect x="64" y="70" width="3" height="1"/>
  <rect x="29" y="71" width="3" height="1"/>
  <rect x="37" y="71" width="2" height="1"/>
  <rect x="44" y="71" width="7" height="1"/>
  <rect x="56" y="71" width="2" height="1"/>
  <rect x="64" y="71" width="3" height="1"/>
  <rect x="29" y="72" width="3" height="1"/>
  <rect x="34" y="72" width="4" height="1"/>
  <rect x="44" y="72" width="8" height="1"/>
  <rect x="57" y="72" width="4" height="1"/>
  <rect x="63" y="72" width="3" height="1"/>
  <rect x="29" y="73" width="3" height="1"/>
  <rect x="35" y="73" width="1" height="1"/>
  <rect x="43" y="73" width="9" height="1"/>
  <rect x="59" y="73" width="1" height="1"/>
  <rect x="63" y="73" width="3" height="1"/>
  <rect x="30" y="74" width="3" height="1"/>
  <rect x="43" y="74" width="10" height="1"/>
  <rect x="63" y="74" width="3" height="1"/>
  <rect x="30" y="75" width="3" height="1"/>
  <rect x="41" y="75" width="13" height="1"/>
  <rect x="62" y="75" width="3" height="1"/>
  <rect x="31" y="76" width="4" height="1"/>
  <rect x="40" y="76" width="5" height="1"/>
  <rect x="46" y="76" width="3" height="1"/>
  <rect x="51" y="76" width="4" height="1"/>
  <rect x="61" y="76" width="3" height="1"/>
  <rect x="32" y="77" width="12" height="1"/>
  <rect x="46" y="77" width="4" height="1"/>
  <rect x="52" y="77" width="12" height="1"/>
  <rect x="33" y="78" width="9" height="1"/>
  <rect x="46" y="78" width="3" height="1"/>
  <rect x="53" y="78" width="9" height="1"/>
  <rect x="35" y="79" width="6" height="1"/>
  <rect x="46" y="79" width="3" height="1"/>
  <rect x="54" y="79" width="7" height="1"/>
  <rect x="46" y="80" width="3" height="1"/>
  <rect x="47" y="81" width="1" height="1"/>
  </g>
</svg>