<svg xmlns="http://www.w3.org/2000/svg" viewBox="0 0 100 100" width="100" height="100">
  <g fill="currentColor">
  <rect x="50" y="25" width="1" height="1"/>
  <rect x="49" y="26" width="3" height="1"/>
  <rect x="48" y="27" width="4" height="1"/>
  <rect x="48" y="28" width="5" height="1"/>
  <rect x="47" y="29" width="6" height="1"/>
  <rect x="47" y="30" width="6" height="1"/>
  <rect x="47" y="31" width="7" height="1"/>
  <rect x="47" y="32" width="7" height="1"/>
  <rect x="46" y="33" width="8" height="1"/>
  <rect x="46" y="34" width="8" height="1"/>
  <rect x="33" y="35" width="8" height="1"/>
  <rect x="46" y="35" width="8" height="1"/>
  <rect x="59" y="35" width="9" height="1"/>
  <rect x="31" y="36" width="12" height="1"/>
  <rect x="47" y="36" width="7" height="1"/>
  <rect x="58" y="36" width="12" height="1"/>
  <rect x="30" y="37" width="14" height="1"/>
  <rect x="47" y="37" width="7" height="1"/>
  <rect x="56" y="37" width="15" height="1"/>
  <rect x="29" y="38" width="17" height="1"/>
  <rect x="47" y="38" width="7" height="1"/>
  <rect x="55" y="38" width="17" height="1"/>
  <rect x="28" y="39" width="18" height="1"/>
  <rect x="47" y="39" width="6" height="1"/>
  <rect x="54" y="39" width="19" height="1"/>
  <rect x="27" y="40" width="46" height="1"/>
  <rect x="27" y="41" width="47" height="1"/>
  <rect x="27" y="42" width="8" height="1"/>
  <rect x="43" y="42" width="14" height="1"/>
  <rect x="65" y="42" width="9" height="1"/>
  <rect x="26" y="43" width="8" height="1"/>
  <rect x="44" y="43" width="12" height="1"/>
  <rect x="66" y="43" width="8" height="1"/>
  <rect x="26" y="44" width="7" height="1"/>
  <rect x="45" y="44" width="10" height="1"/>
  <rect x="67" y="44" width="7" height="1"/>
  <rect x="26" y="45" width="6" height="1"/>
  <rect x="46" y="45" width="9" height="1"/>
  <rect x="68" y="45" width="7" height="1"/>
  <rect x="25" y="46" width="7" height="1"/>
  <rect x="46" y="46" width="8" height="1"/>
  <rect x="68" y="46" width="7" height="1"/>
  <rect x="26" y="47" width="6" height="1"/>
  <rect x="47" y="47" width="7" height="1"/>
  <rect x="69" y="47" width="6" height="1"/>
  <rect x="26" y="48" width="6" height="1"/>
  <rect x="47" y="48" width="6" height="1"/>
  <rect x="69" y="48" width="6" height="1"/>
  <rect x="26" y="49" width="6" height="1"/>
  <rect x="47" y="49" width="6" height="1"/>
  <rect x="69" y="49" width="6" height="1"/>
  <rect x="26" y="50" width="6" height="1"/>
  <rect x="47" y="50" width="6" height="1"/>
  <rect x="69" y="50" width="6" height="1"/>
  <rect x="26" y="51" width="6" height="1"/>
  <rect x="47" y="51" width="6" height="1"/>
  <rect x="69" y="51" width="6" height="1"/>
  <rect x="26" y="52" width="6" height="1"/>
  <rect x="47" y="52" width="6" height="1"/>
  <rect x="68" y="52" width="7" height="1"/>
  <rect x="26" y="53" width="7" height="1"/>
  <rect x="41" y="53" width="1" height="1"/>
  <rect x="47" y="53" width="6" height="1"/>
  <rect x="68" y="53" width="6" height="1"/>
  <rect x="27" y="54" width="6" height="1"/>
  <rect x="41" y="54" width="1" height="1"/>
  <rect x="47" y="54" width="6" height="1"/>
  <rect x="59" y="54" width="1" height="1"/>
  <rect x="67" y="54" width="7" height="1"/>
  <rect x="27" y="55" width="7" height="1"/>
  <rect x="40" y="55" width="1" height="1"/>
  <rect x="47" y="55" width="7" height="1"/>
  <rect x="59" y="55" width="2" height="1"/>
  <rect x="66" y="55" width="7" height="1"/>
  <rect x="28" y="56" width="8" height="1"/>
  <rect x="38" y="56" width="3" height="1"/>
  <rect x="47" y="56" width="7" height="1"/>
  <rect x="60" y="56" width="2" height="1"/>
  <rect x="65" y="56" width="8" height="1"/>
  <rect x="29" y="57" width="11" height="1"/>
  <rect x="46" y="57" width="8" height="1"/>
  <rect x="60" y="57" width="12" height="1"/>
  <rect x="30" y="58" width="9" height="1"/>
  <rect x="46" y="58" width="9" height="1"/>
  <rect x="61" y="58" width="10" height="1"/>
  <rect x="31" y="59" width="7" height="1"/>
  <rect x="45" y="59" width="10" height="1"/>
  <rect x="63" y="59" width="7" height="1"/>
  <rect x="44" y="60" width="12" height="1"/>
  <rect x="43" y="61" width="14" height="1"/>
  <rect x="42" y="62" width="16" height="1"/>
  <rect x="41" y="63" width="19" height="1"/>
  <rect x="39" y="64" width="8" height="1"/>
  <rect x="48" y="64" width="13" height="1"/>
  <rect x="35" y="65" width="11" height="1"/>
  <rect x="48" y="65" width="5" height="1"/>
  <rect x="54" y="65" width="11" height="1"/>
  <rect x="33" y="66" width="12" height="1"/>
  <rect x="48" y="66" width="5" height="1"/>
  <rect x="56" y="66" width="11" height="1"/>
  <rect x="34" y="67" width="10" height="1"/>
  <rect x="48" y="67" width="5" height="1"/>
  <rect x="56" y="67" width="10" height="1"/>
  <rect x="36" y="68" width="6" height="1"/>
  <rect x="48" y="68" width="5" height="1"/>
  <rect x="58" y="68" width="7" height="1"/>
  <rect x="38" y="69" width="2" height="1"/>
  <rect x="48" y="69" width="4" height="1"/>
  <rect x="61" y="69" width="2" height="1"/>
  <rect x="49" y="70" width="3" height="1"/>
  <rect x="50" y="71" width="1" height="1"/>
  </g>
</svg>