<svg xmlns="http://www.w3.org/2000/svg" viewBox="0 0 100 100" width="100" height="100">
  <g fill="currentColor">
  <rect x="49" y="22" width="2" height="1"/>
  <rect x="49" y="23" width="3" height="1"/>
  <rect x="48" y="24" width="4" height="1"/>
  <rect x="48" y="25" width="5" height="1"/>
  <rect x="47" y="26" width="6" height="1"/>
  <rect x="47" y="27" width="6" height="1"/>
  <rect x="47" y="28" width="6" height="1"/>
  <rect x="47" y="29" width="6" height="1"/>
  <rect x="44" y="30" width="1" height="1"/>
  <rect x="47" y="30" width="6" height="1"/>
  <rect x="55" y="30" width="2" height="1"/>
  <rect x="42" y="31" width="17" height="1"/>
  <rect x="41" y="32" width="3" height="1"/>
  <rect x="46" y="32" width="14" height="1"/>
  <rect x="40" y="33" width="3" height="1"/>
  <rect x="47" y="33" width="6" height="1"/>
  <rect x="58" y="33" width="2" height="1"/>
  <rect x="40" y="34" width="2" height="1"/>
  <rect x="48" y="34" width="5" height="1"/>
  <rect x="58" y="34" width="2" height="1"/>
  <rect x="40" y="35" width="2" height="1"/>
  <rect x="48" y="35" width="4" height="1"/>
  <rect x="59" y="35" width="1" height="1"/>
  <rect x="40" y="36" width="2" height="1"/>
  <rect x="43" y="36" width="3" height="1"/>
  <rect x="49" y="36" width="3" height="1"/>
  <rect x="55" y="36" width="2" height="1"/>
  <rect x="59" y="36" width="1" height="1"/>
  <rect x="40" y="37" width="6" height="1"/>
  <rect x="49" y="37" width="3" height="1"/>
  <rect x="55" y="37" width="5" height="1"/>
  <rect x="41" y="38" width="5" height="1"/>
  <rect x="49" y="38" width="3" height="1"/>
  <rect x="55" y="38" width="5" height="1"/>
  <rect x="42" y="39" width="3" height="1"/>
  <rect x="49" y="39" width="3" height="1"/>
  <rect x="55" y="39" width="4" height="1"/>
  <rect x="48" y="40" width="4" height="1"/>
  <rect x="34" y="41" width="3" height="1"/>
  <rect x="48" y="41" width="5" height="1"/>
  <rect x="64" y="41" width="2" height="1"/>
  <rect x="32" y="42" width="6" height="1"/>
  <rect x="46" y="42" width="8" height="1"/>
  <rect x="62" y="42" width="6" height="1"/>
  <rect x="32" y="43" width="2" height="1"/>
  <rect x="37" y="43" width="2" height="1"/>
  <rect x="46" y="43" width="9" height="1"/>
  <rect x="61" y="43" width="3" height="1"/>
  <rect x="66" y="43" width="3" height="1"/>
  <rect x="31" y="44" width="2" height="1"/>
  <rect x="37" y="44" width="3" height="1"/>
  <rect x="46" y="44" width="8" height="1"/>
  <rect x="61" y="44" width="3" height="1"/>
  <rect x="67" y="44" width="2" height="1"/>
  <rect x="31" y="45" width="2" height="1"/>
  <rect x="36" y="45" width="4" height="1"/>
  <rect x="47" y="45" width="6" height="1"/>
  <rect x="61" y="45" width="4" height="1"/>
  <rect x="68" y="45" width="1" height="1"/>
  <rect x="31" y="46" width="2" height="1"/>
  <rect x="35" y="46" width="4" height="1"/>
  <rect x="48" y="46" width="5" height="1"/>
  <rect x="61" y="46" width="4" height="1"/>
  <rect x="68" y="46" width="1" height="1"/>
  <rect x="31" y="47" width="2" height="1"/>
  <rect x="36" y="47" width="3" height="1"/>
  <rect x="48" y="47" width="5" height="1"/>
  <rect x="62" y="47" width="3" height="1"/>
  <rect x="68" y="47" width="1" height="1"/>
  <rect x="32" y="48" width="1" height="1"/>
  <rect x="41" y="48" width="2" height="1"/>
  <rect x="47" y="48" width="6" height="1"/>
  <rect x="58" y="48" width="1" height="1"/>
  <rect x="67" y="48" width="2" height="1"/>
  <rect x="32" y="49" width="1" height="1"/>
  <rect x="41" y="49" width="2" height="1"/>
  <rect x="47" y="49" width="7" height="1"/>
  <rect x="57" y="49" width="3" height="1"/>
  <rect x="67" y="49" width="2" height="1"/>
  <rect x="27" y="50" width="7" height="1"/>
  <rect x="40" y="50" width="20" height="1"/>
  <rect x="66" y="50" width="8" height="1"/>
  <rect x="25" y="51" width="11" height="1"/>
  <rect x="39" y="51" width="23" height="1"/>
  <rect x="65" y="51" width="10" height="1"/>
  <rect x="24" y="52" width="53" height="1"/>
  <rect x="24" y="53" width="53" height="1"/>
  <rect x="25" y="54" width="51" height="1"/>
  <rect x="26" y="55" width="9" height="1"/>
  <rect x="39" y="55" width="22" height="1"/>
  <rect x="66" y="55" width="9" height="1"/>
  <rect x="28" y="56" width="6" height="1"/>
  <rect x="40" y="56" width="20" height="1"/>
  <rect x="66" y="56" width="7" height="1"/>
  <rect x="32" y="57" width="1" height="1"/>
  <rect x="41" y="57" width="2" height="1"/>
  <rect x="47" y="57" width="7" height="1"/>
  <rect x="57" y="57" width="2" height="1"/>
  <rect x="67" y="57" width="2" height="1"/>
  <rect x="31" y="58" width="2" height="1"/>
  <rect x="36" y="58" width="2" height="1"/>
  <rect x="41" y="58" width="1" height="1"/>
  <rect x="47" y="58" width="6" height="1"/>
  <rect x="58" y="58" width="1" height="1"/>
  <rect x="63" y="58" width="1" height="1"/>
  <rect x="68" y="58" width="1" height="1"/>
  <rect x="31" y="59" width="2" height="1"/>
  <rect x="35" y="59" width="4" height="1"/>
  <rect x="48" y="59" width="5" height="1"/>
  <rect x="62" y="59" width="3" height="1"/>
  <rect x="68" y="59" width="1" height="1"/>
  <rect x="31" y="60" width="2" height="1"/>
  <rect x="35" y="60" width="4" height="1"/>
  <rect x="48" y="60" width="5" height="1"/>
  <rect x="61" y="60" width="4" height="1"/>
  <rect x="68" y="60" width="1" height="1"/>
  <rect x="31" y="61" width="2" height="1"/>
  <rect x="36" y="61" width="4" height="1"/>
  <rect x="47" y="61" width="6" height="1"/>
  <rect x="61" y="61" width="4" height="1"/>
  <rect x="67" y="61" width="2" height="1"/>
  <rect x="32" y="62" width="2" height="1"/>
  <rect x="37" y="62" width="2" height="1"/>
  <rect x="46" y="62" width="8" height="1"/>
  <rect x="61" y="62" width="3" height="1"/>
  <rect x="67" y="62" width="2" height="1"/>
  <rect x="32" y="63" width="7" height="1"/>
  <rect x="46" y="63" width="9" height="1"/>
  <rect x="62" y="63" width="6" height="1"/>
  <rect x="33" y="64" width="5" height="1"/>
  <rect x="47" y="64" width="7" height="1"/>
  <rect x="63" y="64" width="4" height="1"/>
  <rect x="48" y="65" width="5" height="1"/>
  <rect x="43" y="66" width="1" height="1"/>
  <rect x="48" y="66" width="4" height="1"/>
  <rect x="56" y="66" width="2" height="1"/>
  <rect x="41" y="67" width="4" height="1"/>
  <rect x="49" y="67" width="3" height="1"/>
  <rect x="55" y="67" width="4" height="1"/>
  <rect x="41" y="68" width="5" height="1"/>
  <rect x="49" y="68" width="3" height="1"/>
  <rect x="55" y="68" width="5" height="1"/>
  <rect x="40" y="69" width="6" height="1"/>
  <rect x="49" y="69" width="3" height="1"/>
  <rect x="55" y="69" width="5" height="1"/>
  <rect x="40" y="70" width="2" height="1"/>
  <rect x="43" y="70" width="3" height="1"/>
  <rect x="49" y="70" width="3" height="1"/>
  <rect x="55" y="70" width="2" height="1"/>
  <rect x="59" y="70" width="1" height="1"/>
  <rect x="40" y="71" width="2" height="1"/>
  <rect x="48" y="71" width="4" height="1"/>
  <rect x="59" y="71" width="1" height="1"/>
  <rect x="40" y="72" width="2" height="1"/>
  <rect x="48" y="72" width="5" height="1"/>
  <rect x="58" y="72" width="2" height="1"/>
  <rect x="41" y="73" width="2" height="1"/>
  <rect x="47" y="73" width="7" height="1"/>
  <rect x="57" y="73" width="3" height="1"/>
  <rect x="41" y="74" width="18" height="1"/>
  <rect x="42" y="75" width="16" height="1"/>
  <rect x="47" y="76" width="6" height="1"/>
  <rect x="47" y="77" width="6" height="1"/>
  <rect x="47" y="78" width="6" height="1"/>
  <rect x="47" y="79" width="6" height="1"/>
  <rect x="48" y="80" width="5" height="1"/>
  <rect x="48" y="81" width="5" height="1"/>
  <rect x="48" y="82" width="4" height="1"/>
  <rect x="49" y="83" width="3" height="1"/>
  <rect x="49" y="84" width="2" height="1"/>
  </g>
</svg>