<svg xmlns="http://www.w3.org/2000/svg" viewBox="0 0 100 100" width="100" height="100">
  <g fill="currentColor">
  <rect x="51" y="30" width="1" height="1"/>
  <rect x="50" y="31" width="2" height="1"/>
  <rect x="50" y="32" width="3" height="1"/>
  <rect x="49" y="33" width="4" height="1"/>
  <rect x="49" y="34" width="4" height="1"/>
  <rect x="49" y="35" width="4" height="1"/>
  <rect x="49" y="36" width="4" height="1"/>
  <rect x="49" y="37" width="4" height="1"/>
  <rect x="44" y="38" width="3" height="1"/>
  <rect x="50" y="38" width="3" height="1"/>
  <rect x="56" y="38" width="2" height="1"/>
  <rect x="44" y="39" width="4" height="1"/>
  <rect x="50" y="39" width="2" height="1"/>
  <rect x="54" y="39" width="4" height="1"/>
  <rect x="45" y="40" width="7" height="1"/>
  <rect x="53" y="40" width="4" height="1"/>
  <rect x="46" y="41" width="10" height="1"/>
  <rect x="47" y="42" width="8" height="1"/>
  <rect x="40" y="43" width="3" height="1"/>
  <rect x="48" y="43" width="7" height="1"/>
  <rect x="59" y="43" width="3" height="1"/>
  <rect x="38" y="44" width="6" height="1"/>
  <rect x="48" y="44" width="6" height="1"/>
  <rect x="58" y="44" width="7" height="1"/>
  <rect x="37" y="45" width="8" height="1"/>
  <rect x="48" y="45" width="6" height="1"/>
  <rect x="57" y="45" width="8" height="1"/>
  <rect x="36" y="46" width="3" height="1"/>
  <rect x="42" y="46" width="3" height="1"/>
  <rect x="48" y="46" width="6" height="1"/>
  <rect x="57" y="46" width="3" height="1"/>
  <rect x="63" y="46" width="3" height="1"/>
  <rect x="36" y="47" width="2" height="1"/>
  <rect x="43" y="47" width="2" height="1"/>
  <rect x="49" y="47" width="5" height="1"/>
  <rect x="57" y="47" width="2" height="1"/>
  <rect x="64" y="47" width="2" height="1"/>
  <rect x="35" y="48" width="3" height="1"/>
  <rect x="43" y="48" width="2" height="1"/>
  <rect x="49" y="48" width="5" height="1"/>
  <rect x="57" y="48" width="2" height="1"/>
  <rect x="64" y="48" width="3" height="1"/>
  <rect x="35" y="49" width="3" height="1"/>
  <rect x="43" y="49" width="2" height="1"/>
  <rect x="48" y="49" width="6" height="1"/>
  <rect x="57" y="49" width="2" height="1"/>
  <rect x="65" y="49" width="2" height="1"/>
  <rect x="35" y="50" width="3" height="1"/>
  <rect x="43" y="50" width="1" height="1"/>
  <rect x="48" y="50" width="6" height="1"/>
  <rect x="58" y="50" width="2" height="1"/>
  <rect x="65" y="50" width="2" height="1"/>
  <rect x="36" y="51" width="2" height="1"/>
  <rect x="48" y="51" width="7" height="1"/>
  <rect x="64" y="51" width="3" height="1"/>
  <rect x="36" y="52" width="3" height="1"/>
  <rect x="47" y="52" width="8" height="1"/>
  <rect x="63" y="52" width="3" height="1"/>
  <rect x="36" y="53" width="4" height="1"/>
  <rect x="46" y="53" width="10" height="1"/>
  <rect x="62" y="53" width="4" height="1"/>
  <rect x="26" y="54" width="9" height="1"/>
  <rect x="36" y="54" width="6" height="1"/>
  <rect x="43" y="54" width="16" height="1"/>
  <rect x="60" y="54" width="6" height="1"/>
  <rect x="67" y="54" width="9" height="1"/>
  <rect x="25" y="55" width="53" height="1"/>
  <rect x="23" y="56" width="56" height="1"/>
  <rect x="22" y="57" width="58" height="1"/>
  <rect x="23" y="58" width="57" height="1"/>
  <rect x="23" y="59" width="56" height="1"/>
  <rect x="25" y="60" width="53" height="1"/>
  <rect x="27" y="61" width="7" height="1"/>
  <rect x="37" y="61" width="5" height="1"/>
  <rect x="44" y="61" width="14" height="1"/>
  <rect x="61" y="61" width="5" height="1"/>
  <rect x="68" y="61" width="8" height="1"/>
  <rect x="36" y="62" width="4" height="1"/>
  <rect x="46" y="62" width="10" height="1"/>
  <rect x="63" y="62" width="3" height="1"/>
  <rect x="36" y="63" width="2" height="1"/>
  <rect x="47" y="63" width="8" height="1"/>
  <rect x="64" y="63" width="2" height="1"/>
  <rect x="36" y="64" width="2" height="1"/>
  <rect x="48" y="64" width="6" height="1"/>
  <rect x="64" y="64" width="3" height="1"/>
  <rect x="35" y="65" width="3" height="1"/>
  <rect x="42" y="65" width="3" height="1"/>
  <rect x="48" y="65" width="6" height="1"/>
  <rect x="58" y="65" width="2" height="1"/>
  <rect x="65" y="65" width="2" height="1"/>
  <rect x="35" y="66" width="3" height="1"/>
  <rect x="43" y="66" width="2" height="1"/>
  <rect x="48" y="66" width="6" height="1"/>
  <rect x="57" y="66" width="2" height="1"/>
  <rect x="65" y="66" width="2" height="1"/>
  <rect x="36" y="67" width="2" height="1"/>
  <rect x="43" y="67" width="2" height="1"/>
  <rect x="48" y="67" width="6" height="1"/>
  <rect x="57" y="67" width="2" height="1"/>
  <rect x="64" y="67" width="3" height="1"/>
  <rect x="36" y="68" width="3" height="1"/>
  <rect x="43" y="68" width="2" height="1"/>
  <rect x="49" y="68" width="5" height="1"/>
  <rect x="57" y="68" width="2" height="1"/>
  <rect x="64" y="68" width="2" height="1"/>
  <rect x="36" y="69" width="3" height="1"/>
  <rect x="42" y="69" width="3" height="1"/>
  <rect x="49" y="69" width="5" height="1"/>
  <rect x="57" y="69" width="3" height="1"/>
  <rect x="63" y="69" width="3" height="1"/>
  <rect x="37" y="70" width="7" height="1"/>
  <rect x="48" y="70" width="6" height="1"/>
  <rect x="58" y="70" width="7" height="1"/>
  <rect x="38" y="71" width="6" height="1"/>
  <rect x="48" y="71" width="6" height="1"/>
  <rect x="59" y="71" width="5" height="1"/>
  <rect x="48" y="72" width="7" height="1"/>
  <rect x="47" y="73" width="9" height="1"/>
  <rect x="46" y="74" width="10" height="1"/>
  <rect x="45" y="75" width="4" height="1"/>
  <rect x="50" y="75" width="2" height="1"/>
  <rect x="53" y="75" width="5" height="1"/>
  <rect x="43" y="76" width="5" height="1"/>
  <rect x="50" y="76" width="3" height="1"/>
  <rect x="54" y="76" width="5" height="1"/>
  <rect x="50" y="77" width="3" height="1"/>
  <rect x="49" y="78" width="4" height="1"/>
  <rect x="49" y="79" width="4" height="1"/>
  <rect x="49" y="80" width="4" height="1"/>
  <rect x="49" y="81" width="4" height="1"/>
  <rect x="50" y="82" width="3" height="1"/>
  <rect x="50" y="83" width="3" height="1"/>
  <rect x="50" y="84" width="2" height="1"/>
  <rect x="51" y="85" width="1" height="1"/>
  </g>
</svg>