<svg xmlns="http://www.w3.org/2000/svg" viewBox="0 0 100 100" width="100" height="100">
  <g fill="currentColor">
  <rect x="43" y="19" width="10" height="1"/>
  <rect x="40" y="20" width="16" height="1"/>
  <rect x="37" y="21" width="21" height="1"/>
  <rect x="35" y="22" width="8" height="1"/>
  <rect x="52" y="22" width="8" height="1"/>
  <rect x="34" y="23" width="7" height="1"/>
  <rect x="54" y="23" width="8" height="1"/>
  <rect x="32" y="24" width="6" height="1"/>
  <rect x="57" y="24" width="6" height="1"/>
  <rect x="31" y="25" width="5" height="1"/>
  <rect x="46" y="25" width="4" height="1"/>
  <rect x="59" y="25" width="6" height="1"/>
  <rect x="30" y="26" width="4" height="1"/>
  <rect x="44" y="26" width="7" height="1"/>
  <rect x="61" y="26" width="5" height="1"/>
  <rect x="29" y="27" width="5" height="1"/>
  <rect x="37" y="27" width="4" height="1"/>
  <rect x="43" y="27" width="4" height="1"/>
  <rect x="48" y="27" width="4" height="1"/>
  <rect x="55" y="27" width="4" height="1"/>
  <rect x="61" y="27" width="6" height="1"/>
  <rect x="28" y="28" width="6" height="1"/>
  <rect x="36" y="28" width="5" height="1"/>
  <rect x="43" y="28" width="4" height="1"/>
  <rect x="48" y="28" width="5" height="1"/>
  <rect x="54" y="28" width="6" height="1"/>
  <rect x="62" y="28" width="5" height="1"/>
  <rect x="27" y="29" width="4" height="1"/>
  <rect x="32" y="29" width="1" height="1"/>
  <rect x="35" y="29" width="12" height="1"/>
  <rect x="48" y="29" width="12" height="1"/>
  <rect x="62" y="29" width="2" height="1"/>
  <rect x="65" y="29" width="3" height="1"/>
  <rect x="26" y="30" width="4" height="1"/>
  <rect x="32" y="30" width="1" height="1"/>
  <rect x="35" y="30" width="12" height="1"/>
  <rect x="49" y="30" width="11" height="1"/>
  <rect x="62" y="30" width="2" height="1"/>
  <rect x="65" y="30" width="4" height="1"/>
  <rect x="25" y="31" width="4" height="1"/>
  <rect x="32" y="31" width="1" height="1"/>
  <rect x="35" y="31" width="3" height="1"/>
  <rect x="40" y="31" width="6" height="1"/>
  <rect x="49" y="31" width="7" height="1"/>
  <rect x="57" y="31" width="3" height="1"/>
  <rect x="62" y="31" width="1" height="1"/>
  <rect x="66" y="31" width="4" height="1"/>
  <rect x="25" y="32" width="3" height="1"/>
  <rect x="32" y="32" width="2" height="1"/>
  <rect x="36" y="32" width="1" height="1"/>
  <rect x="40" y="32" width="6" height="1"/>
  <rect x="49" y="32" width="6" height="1"/>
  <rect x="58" y="32" width="2" height="1"/>
  <rect x="62" y="32" width="1" height="1"/>
  <rect x="67" y="32" width="4" height="1"/>
  <rect x="24" y="33" width="4" height="1"/>
  <rect x="32" y="33" width="2" height="1"/>
  <rect x="41" y="33" width="5" height="1"/>
  <rect x="49" y="33" width="6" height="1"/>
  <rect x="61" y="33" width="2" height="1"/>
  <rect x="68" y="33" width="3" height="1"/>
  <rect x="24" y="34" width="4" height="1"/>
  <rect x="33" y="34" width="1" height="1"/>
  <rect x="41" y="34" width="4" height="1"/>
  <rect x="50" y="34" width="5" height="1"/>
  <rect x="61" y="34" width="1" height="1"/>
  <rect x="67" y="34" width="5" height="1"/>
  <rect x="23" y="35" width="12" height="1"/>
  <rect x="40" y="35" width="5" height="1"/>
  <rect x="50" y="35" width="6" height="1"/>
  <rect x="60" y="35" width="12" height="1"/>
  <rect x="23" y="36" width="4" height="1"/>
  <rect x="30" y="36" width="7" height="1"/>
  <rect x="39" y="36" width="5" height="1"/>
  <rect x="51" y="36" width="6" height="1"/>
  <rect x="59" y="36" width="7" height="1"/>
  <rect x="68" y="36" width="5" height="1"/>
  <rect x="22" y="37" width="3" height="1"/>
  <rect x="32" y="37" width="10" height="1"/>
  <rect x="53" y="37" width="11" height="1"/>
  <rect x="70" y="37" width="3" height="1"/>
  <rect x="22" y="38" width="3" height="1"/>
  <rect x="33" y="38" width="5" height="1"/>
  <rect x="57" y="38" width="6" height="1"/>
  <rect x="71" y="38" width="2" height="1"/>
  <rect x="21" y="39" width="3" height="1"/>
  <rect x="27" y="39" width="3" height="1"/>
  <rect x="33" y="39" width="6" height="1"/>
  <rect x="56" y="39" width="6" height="1"/>
  <rect x="65" y="39" width="4" height="1"/>
  <rect x="71" y="39" width="3" height="1"/>
  <rect x="21" y="40" width="3" height="1"/>
  <rect x="26" y="40" width="4" height="1"/>
  <rect x="33" y="40" width="12" height="1"/>
  <rect x="50" y="40" width="12" height="1"/>
  <rect x="65" y="40" width="5" height="1"/>
  <rect x="71" y="40" width="3" height="1"/>
  <rect x="21" y="41" width="2" height="1"/>
  <rect x="25" y="41" width="4" height="1"/>
  <rect x="33" y="41" width="12" height="1"/>
  <rect x="50" y="41" width="11" height="1"/>
  <rect x="66" y="41" width="4" height="1"/>
  <rect x="72" y="41" width="3" height="1"/>
  <rect x="20" y="42" width="3" height="1"/>
  <rect x="26" y="42" width="3" height="1"/>
  <rect x="33" y="42" width="2" height="1"/>
  <rect x="36" y="42" width="9" height="1"/>
  <rect x="51" y="42" width="8" height="1"/>
  <rect x="60" y="42" width="2" height="1"/>
  <rect x="66" y="42" width="4" height="1"/>
  <rect x="72" y="42" width="3" height="1"/>
  <rect x="20" y="43" width="3" height="1"/>
  <rect x="25" y="43" width="4" height="1"/>
  <rect x="33" y="43" width="2" height="1"/>
  <rect x="36" y="43" width="9" height="1"/>
  <rect x="51" y="43" width="8" height="1"/>
  <rect x="61" y="43" width="1" height="1"/>
  <rect x="66" y="43" width="4" height="1"/>
  <rect x="72" y="43" width="3" height="1"/>
  <rect x="20" y="44" width="3" height="1"/>
  <rect x="26" y="44" width="4" height="1"/>
  <rect x="32" y="44" width="3" height="1"/>
  <rect x="36" y="44" width="8" height="1"/>
  <rect x="52" y="44" width="7" height="1"/>
  <rect x="60" y="44" width="3" height="1"/>
  <rect x="66" y="44" width="4" height="1"/>
  <rect x="73" y="44" width="3" height="1"/>
  <rect x="20" y="45" width="2" height="1"/>
  <rect x="26" y="45" width="9" height="1"/>
  <rect x="37" y="45" width="7" height="1"/>
  <rect x="52" y="45" width="7" height="1"/>
  <rect x="60" y="45" width="9" height="1"/>
  <rect x="73" y="45" width="3" height="1"/>
  <rect x="19" y="46" width="3" height="1"/>
  <rect x="27" y="46" width="7" height="1"/>
  <rect x="37" y="46" width="7" height="1"/>
  <rect x="51" y="46" width="7" height="1"/>
  <rect x="61" y="46" width="7" height="1"/>
  <rect x="73" y="46" width="3" height="1"/>
  <rect x="19" y="47" width="3" height="1"/>
  <rect x="27" y="47" width="7" height="1"/>
  <rect x="37" y="47" width="8" height="1"/>
  <rect x="50" y="47" width="8" height="1"/>
  <rect x="61" y="47" width="8" height="1"/>
  <rect x="73" y="47" width="3" height="1"/>
  <rect x="19" y="48" width="3" height="1"/>
  <rect x="26" y="48" width="8" height="1"/>
  <rect x="37" y="48" width="3" height="1"/>
  <rect x="41" y="48" width="5" height="1"/>
  <rect x="49" y="48" width="10" height="1"/>
  <rect x="61" y="48" width="9" height="1"/>
  <rect x="73" y="48" width="3" height="1"/>
  <rect x="19" y="49" width="3" height="1"/>
  <rect x="25" y="49" width="8" height="1"/>
  <rect x="36" y="49" width="3" height="1"/>
  <rect x="42" y="49" width="4" height="1"/>
  <rect x="49" y="49" width="5" height="1"/>
  <rect x="56" y="49" width="3" height="1"/>
  <rect x="62" y="49" width="8" height="1"/>
  <rect x="73" y="49" width="3" height="1"/>
  <rect x="19" y="50" width="3" height="1"/>
  <rect x="24" y="50" width="8" height="1"/>
  <rect x="43" y="50" width="4" height="1"/>
  <rect x="49" y="50" width="4" height="1"/>
  <rect x="63" y="50" width="8" height="1"/>
  <rect x="73" y="50" width="3" height="1"/>
  <rect x="19" y="51" width="3" height="1"/>
  <rect x="24" y="51" width="7" height="1"/>
  <rect x="44" y="51" width="3" height="1"/>
  <rect x="48" y="51" width="4" height="1"/>
  <rect x="64" y="51" width="7" height="1"/>
  <rect x="73" y="51" width="4" height="1"/>
  <rect x="19" y="52" width="3" height="1"/>
  <rect x="24" y="52" width="4" height="1"/>
  <rect x="68" y="52" width="3" height="1"/>
  <rect x="74" y="52" width="3" height="1"/>
  <rect x="19" y="53" width="3" height="1"/>
  <rect x="24" y="53" width="1" height="1"/>
  <rect x="70" y="53" width="1" height="1"/>
  <rect x="74" y="53" width="3" height="1"/>
  <rect x="19" y="54" width="3" height="1"/>
  <rect x="24" y="54" width="4" height="1"/>
  <rect x="45" y="54" width="2" height="1"/>
  <rect x="49" y="54" width="1" height="1"/>
  <rect x="67" y="54" width="4" height="1"/>
  <rect x="73" y="54" width="4" height="1"/>
  <rect x="19" y="55" width="3" height="1"/>
  <rect x="24" y="55" width="7" height="1"/>
  <rect x="43" y="55" width="4" height="1"/>
  <rect x="48" y="55" width="4" height="1"/>
  <rect x="64" y="55" width="7" height="1"/>
  <rect x="73" y="55" width="4" height="1"/>
  <rect x="19" y="56" width="3" height="1"/>
  <rect x="24" y="56" width="9" height="1"/>
  <rect x="42" y="56" width="5" height="1"/>
  <rect x="49" y="56" width="4" height="1"/>
  <rect x="63" y="56" width="8" height="1"/>
  <rect x="73" y="56" width="3" height="1"/>
  <rect x="19" y="57" width="3" height="1"/>
  <rect x="25" y="57" width="8" height="1"/>
  <rect x="36" y="57" width="4" height="1"/>
  <rect x="42" y="57" width="4" height="1"/>
  <rect x="49" y="57" width="5" height="1"/>
  <rect x="56" y="57" width="3" height="1"/>
  <rect x="62" y="57" width="8" height="1"/>
  <rect x="73" y="57" width="3" height="1"/>
  <rect x="19" y="58" width="3" height="1"/>
  <rect x="26" y="58" width="8" height="1"/>
  <rect x="37" y="58" width="9" height="1"/>
  <rect x="49" y="58" width="9" height="1"/>
  <rect x="61" y="58" width="8" height="1"/>
  <rect x="73" y="58" width="3" height="1"/>
  <rect x="19" y="59" width="3" height="1"/>
  <rect x="27" y="59" width="7" height="1"/>
  <rect x="37" y="59" width="8" height="1"/>
  <rect x="50" y="59" width="8" height="1"/>
  <rect x="61" y="59" width="7" height="1"/>
  <rect x="73" y="59" width="3" height="1"/>
  <rect x="19" y="60" width="3" height="1"/>
  <rect x="27" y="60" width="7" height="1"/>
  <rect x="37" y="60" width="7" height="1"/>
  <rect x="51" y="60" width="7" height="1"/>
  <rect x="61" y="60" width="7" height="1"/>
  <rect x="73" y="60" width="3" height="1"/>
  <rect x="20" y="61" width="2" height="1"/>
  <rect x="26" y="61" width="9" height="1"/>
  <rect x="37" y="61" width="6" height="1"/>
  <rect x="52" y="61" width="7" height="1"/>
  <rect x="61" y="61" width="3" height="1"/>
  <rect x="65" y="61" width="4" height="1"/>
  <rect x="73" y="61" width="2" height="1"/>
  <rect x="20" y="62" width="3" height="1"/>
  <rect x="26" y="62" width="3" height="1"/>
  <rect x="32" y="62" width="3" height="1"/>
  <rect x="36" y="62" width="8" height="1"/>
  <rect x="52" y="62" width="7" height="1"/>
  <rect x="60" y="62" width="3" height="1"/>
  <rect x="66" y="62" width="4" height="1"/>
  <rect x="72" y="62" width="4" height="1"/>
  <rect x="20" y="63" width="3" height="1"/>
  <rect x="26" y="63" width="3" height="1"/>
  <rect x="33" y="63" width="2" height="1"/>
  <rect x="36" y="63" width="9" height="1"/>
  <rect x="51" y="63" width="8" height="1"/>
  <rect x="61" y="63" width="1" height="1"/>
  <rect x="66" y="63" width="4" height="1"/>
  <rect x="72" y="63" width="3" height="1"/>
  <rect x="21" y="64" width="2" height="1"/>
  <rect x="26" y="64" width="3" height="1"/>
  <rect x="33" y="64" width="2" height="1"/>
  <rect x="36" y="64" width="9" height="1"/>
  <rect x="50" y="64" width="12" height="1"/>
  <rect x="66" y="64" width="4" height="1"/>
  <rect x="72" y="64" width="3" height="1"/>
  <rect x="21" y="65" width="3" height="1"/>
  <rect x="25" y="65" width="5" height="1"/>
  <rect x="33" y="65" width="12" height="1"/>
  <rect x="50" y="65" width="11" height="1"/>
  <rect x="66" y="65" width="4" height="1"/>
  <rect x="72" y="65" width="2" height="1"/>
  <rect x="21" y="66" width="3" height="1"/>
  <rect x="26" y="66" width="5" height="1"/>
  <rect x="33" y="66" width="8" height="1"/>
  <rect x="44" y="66" width="1" height="1"/>
  <rect x="50" y="66" width="2" height="1"/>
  <rect x="55" y="66" width="7" height="1"/>
  <rect x="65" y="66" width="5" height="1"/>
  <rect x="71" y="66" width="3" height="1"/>
  <rect x="22" y="67" width="2" height="1"/>
  <rect x="27" y="67" width="3" height="1"/>
  <rect x="33" y="67" width="6" height="1"/>
  <rect x="57" y="67" width="5" height="1"/>
  <rect x="65" y="67" width="3" height="1"/>
  <rect x="71" y="67" width="3" height="1"/>
  <rect x="22" y="68" width="3" height="1"/>
  <rect x="32" y="68" width="7" height="1"/>
  <rect x="56" y="68" width="7" height="1"/>
  <rect x="70" y="68" width="3" height="1"/>
  <rect x="22" y="69" width="3" height="1"/>
  <rect x="31" y="69" width="12" height="1"/>
  <rect x="53" y="69" width="11" height="1"/>
  <rect x="70" y="69" width="3" height="1"/>
  <rect x="23" y="70" width="13" height="1"/>
  <rect x="39" y="70" width="5" height="1"/>
  <rect x="51" y="70" width="5" height="1"/>
  <rect x="59" y="70" width="14" height="1"/>
  <rect x="23" y="71" width="8" height="1"/>
  <rect x="33" y="71" width="2" height="1"/>
  <rect x="40" y="71" width="5" height="1"/>
  <rect x="50" y="71" width="5" height="1"/>
  <rect x="60" y="71" width="3" height="1"/>
  <rect x="65" y="71" width="7" height="1"/>
  <rect x="24" y="72" width="4" height="1"/>
  <rect x="33" y="72" width="1" height="1"/>
  <rect x="41" y="72" width="4" height="1"/>
  <rect x="50" y="72" width="5" height="1"/>
  <rect x="61" y="72" width="1" height="1"/>
  <rect x="68" y="72" width="3" height="1"/>
  <rect x="24" y="73" width="4" height="1"/>
  <rect x="32" y="73" width="2" height="1"/>
  <rect x="41" y="73" width="5" height="1"/>
  <rect x="49" y="73" width="6" height="1"/>
  <rect x="62" y="73" width="1" height="1"/>
  <rect x="67" y="73" width="4" height="1"/>
  <rect x="25" y="74" width="3" height="1"/>
  <rect x="32" y="74" width="1" height="1"/>
  <rect x="36" y="74" width="1" height="1"/>
  <rect x="40" y="74" width="6" height="1"/>
  <rect x="49" y="74" width="6" height="1"/>
  <rect x="58" y="74" width="2" height="1"/>
  <rect x="62" y="74" width="1" height="1"/>
  <rect x="67" y="74" width="3" height="1"/>
  <rect x="26" y="75" width="3" height="1"/>
  <rect x="32" y="75" width="1" height="1"/>
  <rect x="35" y="75" width="3" height="1"/>
  <rect x="40" y="75" width="6" height="1"/>
  <rect x="49" y="75" width="7" height="1"/>
  <rect x="57" y="75" width="3" height="1"/>
  <rect x="62" y="75" width="1" height="1"/>
  <rect x="66" y="75" width="4" height="1"/>
  <rect x="26" y="76" width="4" height="1"/>
  <rect x="32" y="76" width="1" height="1"/>
  <rect x="35" y="76" width="12" height="1"/>
  <rect x="48" y="76" width="12" height="1"/>
  <rect x="62" y="76" width="2" height="1"/>
  <rect x="65" y="76" width="4" height="1"/>
  <rect x="27" y="77" width="6" height="1"/>
  <rect x="36" y="77" width="11" height="1"/>
  <rect x="48" y="77" width="12" height="1"/>
  <rect x="62" y="77" width="6" height="1"/>
  <rect x="28" y="78" width="6" height="1"/>
  <rect x="36" y="78" width="5" height="1"/>
  <rect x="43" y="78" width="4" height="1"/>
  <rect x="48" y="78" width="5" height="1"/>
  <rect x="54" y="78" width="5" height="1"/>
  <rect x="62" y="78" width="5" height="1"/>
  <rect x="29" y="79" width="5" height="1"/>
  <rect x="37" y="79" width="3" height="1"/>
  <rect x="43" y="79" width="4" height="1"/>
  <rect x="48" y="79" width="4" height="1"/>
  <rect x="55" y="79" width="3" height="1"/>
  <rect x="61" y="79" width="5" height="1"/>
  <rect x="30" y="80" width="5" height="1"/>
  <rect x="44" y="80" width="7" height="1"/>
  <rect x="60" y="80" width="5" height="1"/>
  <rect x="31" y="81" width="6" height="1"/>
  <rect x="47" y="81" width="1" height="1"/>
  <rect x="59" y="81" width="5" height="1"/>
  <rect x="32" y="82" width="6" height="1"/>
  <rect x="57" y="82" width="6" height="1"/>
  <rect x="34" y="83" width="7" height="1"/>
  <rect x="54" y="83" width="8" height="1"/>
  <rect x="35" y="84" width="25" height="1"/>
  <rect x="38" y="85" width="20" height="1"/>
  <rect x="40" y="86" width="15" height="1"/>
  <rect x="44" y="87" width="8" height="1"/>
  </g>
</svg>