<svg xmlns="http://www.w3.org/2000/svg" viewBox="0 0 100 100" width="100" height="100">
  <g fill="currentColor">
  <rect x="47" y="21" width="1" height="1"/>
  <rect x="47" y="22" width="1" height="1"/>
  <rect x="28" y="23" width="2" height="1"/>
  <rect x="46" y="23" width="3" height="1"/>
  <rect x="66" y="23" width="1" height="1"/>
  <rect x="29" y="24" width="2" height="1"/>
  <rect x="40" y="24" width="3" height="1"/>
  <rect x="46" y="24" width="3" height="1"/>
  <rect x="52" y="24" width="3" height="1"/>
  <rect x="64" y="24" width="3" height="1"/>
  <rect x="29" y="25" width="16" height="1"/>
  <rect x="46" y="25" width="3" height="1"/>
  <rect x="50" y="25" width="16" height="1"/>
  <rect x="29" y="26" width="37" height="1"/>
  <rect x="31" y="27" width="34" height="1"/>
  <rect x="33" y="28" width="7" height="1"/>
  <rect x="44" y="28" width="7" height="1"/>
  <rect x="55" y="28" width="8" height="1"/>
  <rect x="33" y="29" width="6" height="1"/>
  <rect x="45" y="29" width="5" height="1"/>
  <rect x="56" y="29" width="6" height="1"/>
  <rect x="32" y="30" width="2" height="1"/>
  <rect x="35" y="30" width="3" height="1"/>
  <rect x="46" y="30" width="3" height="1"/>
  <rect x="57" y="30" width="3" height="1"/>
  <rect x="61" y="30" width="2" height="1"/>
  <rect x="31" y="31" width="6" height="1"/>
  <rect x="41" y="31" width="2" height="1"/>
  <rect x="46" y="31" width="3" height="1"/>
  <rect x="52" y="31" width="2" height="1"/>
  <rect x="58" y="31" width="3" height="1"/>
  <rect x="62" y="31" width="3" height="1"/>
  <rect x="30" y="32" width="3" height="1"/>
  <rect x="34" y="32" width="3" height="1"/>
  <rect x="40" y="32" width="4" height="1"/>
  <rect x="46" y="32" width="3" height="1"/>
  <rect x="52" y="32" width="4" height="1"/>
  <rect x="58" y="32" width="3" height="1"/>
  <rect x="62" y="32" width="3" height="1"/>
  <rect x="29" y="33" width="4" height="1"/>
  <rect x="34" y="33" width="3" height="1"/>
  <rect x="39" y="33" width="3" height="1"/>
  <rect x="46" y="33" width="3" height="1"/>
  <rect x="53" y="33" width="3" height="1"/>
  <rect x="59" y="33" width="2" height="1"/>
  <rect x="62" y="33" width="4" height="1"/>
  <rect x="29" y="34" width="3" height="1"/>
  <rect x="34" y="34" width="2" height="1"/>
  <rect x="39" y="34" width="2" height="1"/>
  <rect x="46" y="34" width="3" height="1"/>
  <rect x="54" y="34" width="2" height="1"/>
  <rect x="59" y="34" width="2" height="1"/>
  <rect x="63" y="34" width="3" height="1"/>
  <rect x="29" y="35" width="3" height="1"/>
  <rect x="34" y="35" width="2" height="1"/>
  <rect x="39" y="35" width="2" height="1"/>
  <rect x="46" y="35" width="3" height="1"/>
  <rect x="54" y="35" width="2" height="1"/>
  <rect x="59" y="35" width="2" height="1"/>
  <rect x="63" y="35" width="4" height="1"/>
  <rect x="28" y="36" width="3" height="1"/>
  <rect x="34" y="36" width="2" height="1"/>
  <rect x="39" y="36" width="2" height="1"/>
  <rect x="45" y="36" width="5" height="1"/>
  <rect x="54" y="36" width="2" height="1"/>
  <rect x="59" y="36" width="3" height="1"/>
  <rect x="64" y="36" width="3" height="1"/>
  <rect x="28" y="37" width="2" height="1"/>
  <rect x="33" y="37" width="4" height="1"/>
  <rect x="39" y="37" width="17" height="1"/>
  <rect x="59" y="37" width="3" height="1"/>
  <rect x="65" y="37" width="2" height="1"/>
  <rect x="28" y="38" width="1" height="1"/>
  <rect x="33" y="38" width="4" height="1"/>
  <rect x="40" y="38" width="16" height="1"/>
  <rect x="58" y="38" width="4" height="1"/>
  <rect x="66" y="38" width="1" height="1"/>
  <rect x="33" y="39" width="4" height="1"/>
  <rect x="40" y="39" width="15" height="1"/>
  <rect x="58" y="39" width="4" height="1"/>
  <rect x="32" y="40" width="6" height="1"/>
  <rect x="46" y="40" width="4" height="1"/>
  <rect x="57" y="40" width="6" height="1"/>
  <rect x="32" y="41" width="6" height="1"/>
  <rect x="45" y="41" width="5" height="1"/>
  <rect x="57" y="41" width="6" height="1"/>
  <rect x="31" y="42" width="3" height="1"/>
  <rect x="35" y="42" width="5" height="1"/>
  <rect x="45" y="42" width="5" height="1"/>
  <rect x="56" y="42" width="4" height="1"/>
  <rect x="61" y="42" width="3" height="1"/>
  <rect x="31" y="43" width="3" height="1"/>
  <rect x="36" y="43" width="5" height="1"/>
  <rect x="45" y="43" width="5" height="1"/>
  <rect x="54" y="43" width="6" height="1"/>
  <rect x="61" y="43" width="3" height="1"/>
  <rect x="30" y="44" width="3" height="1"/>
  <rect x="37" y="44" width="5" height="1"/>
  <rect x="45" y="44" width="5" height="1"/>
  <rect x="53" y="44" width="6" height="1"/>
  <rect x="62" y="44" width="3" height="1"/>
  <rect x="29" y="45" width="4" height="1"/>
  <rect x="45" y="45" width="5" height="1"/>
  <rect x="62" y="45" width="4" height="1"/>
  <rect x="29" y="46" width="3" height="1"/>
  <rect x="46" y="46" width="3" height="1"/>
  <rect x="63" y="46" width="3" height="1"/>
  <rect x="28" y="47" width="3" height="1"/>
  <rect x="46" y="47" width="3" height="1"/>
  <rect x="64" y="47" width="3" height="1"/>
  <rect x="28" y="48" width="2" height="1"/>
  <rect x="47" y="48" width="1" height="1"/>
  <rect x="66" y="48" width="2" height="1"/>
  <rect x="28" y="49" width="3" height="1"/>
  <rect x="47" y="49" width="2" height="1"/>
  <rect x="64" y="49" width="3" height="1"/>
  <rect x="29" y="50" width="3" height="1"/>
  <rect x="46" y="50" width="3" height="1"/>
  <rect x="63" y="50" width="3" height="1"/>
  <rect x="29" y="51" width="4" height="1"/>
  <rect x="39" y="51" width="1" height="1"/>
  <rect x="45" y="51" width="5" height="1"/>
  <rect x="55" y="51" width="2" height="1"/>
  <rect x="62" y="51" width="4" height="1"/>
  <rect x="30" y="52" width="3" height="1"/>
  <rect x="36" y="52" width="6" height="1"/>
  <rect x="45" y="52" width="5" height="1"/>
  <rect x="53" y="52" width="6" height="1"/>
  <rect x="62" y="52" width="3" height="1"/>
  <rect x="31" y="53" width="3" height="1"/>
  <rect x="36" y="53" width="4" height="1"/>
  <rect x="45" y="53" width="5" height="1"/>
  <rect x="54" y="53" width="6" height="1"/>
  <rect x="61" y="53" width="4" height="1"/>
  <rect x="31" y="54" width="3" height="1"/>
  <rect x="35" y="54" width="4" height="1"/>
  <rect x="45" y="54" width="5" height="1"/>
  <rect x="56" y="54" width="4" height="1"/>
  <rect x="61" y="54" width="3" height="1"/>
  <rect x="32" y="55" width="7" height="1"/>
  <rect x="45" y="55" width="5" height="1"/>
  <rect x="57" y="55" width="6" height="1"/>
  <rect x="32" y="56" width="6" height="1"/>
  <rect x="46" y="56" width="4" height="1"/>
  <rect x="58" y="56" width="5" height="1"/>
  <rect x="33" y="57" width="4" height="1"/>
  <rect x="40" y="57" width="15" height="1"/>
  <rect x="58" y="57" width="5" height="1"/>
  <rect x="28" y="58" width="1" height="1"/>
  <rect x="33" y="58" width="4" height="1"/>
  <rect x="40" y="58" width="16" height="1"/>
  <rect x="58" y="58" width="4" height="1"/>
  <rect x="66" y="58" width="1" height="1"/>
  <rect x="28" y="59" width="2" height="1"/>
  <rect x="33" y="59" width="3" height="1"/>
  <rect x="39" y="59" width="17" height="1"/>
  <rect x="59" y="59" width="3" height="1"/>
  <rect x="65" y="59" width="2" height="1"/>
  <rect x="29" y="60" width="2" height="1"/>
  <rect x="34" y="60" width="2" height="1"/>
  <rect x="39" y="60" width="2" height="1"/>
  <rect x="45" y="60" width="5" height="1"/>
  <rect x="54" y="60" width="2" height="1"/>
  <rect x="59" y="60" width="2" height="1"/>
  <rect x="64" y="60" width="3" height="1"/>
  <rect x="29" y="61" width="3" height="1"/>
  <rect x="34" y="61" width="2" height="1"/>
  <rect x="39" y="61" width="2" height="1"/>
  <rect x="46" y="61" width="3" height="1"/>
  <rect x="54" y="61" width="3" height="1"/>
  <rect x="59" y="61" width="2" height="1"/>
  <rect x="63" y="61" width="4" height="1"/>
  <rect x="29" y="62" width="3" height="1"/>
  <rect x="34" y="62" width="2" height="1"/>
  <rect x="39" y="62" width="2" height="1"/>
  <rect x="46" y="62" width="3" height="1"/>
  <rect x="54" y="62" width="2" height="1"/>
  <rect x="59" y="62" width="2" height="1"/>
  <rect x="63" y="62" width="3" height="1"/>
  <rect x="30" y="63" width="3" height="1"/>
  <rect x="34" y="63" width="3" height="1"/>
  <rect x="39" y="63" width="3" height="1"/>
  <rect x="46" y="63" width="3" height="1"/>
  <rect x="53" y="63" width="3" height="1"/>
  <rect x="59" y="63" width="2" height="1"/>
  <rect x="62" y="63" width="4" height="1"/>
  <rect x="30" y="64" width="3" height="1"/>
  <rect x="34" y="64" width="3" height="1"/>
  <rect x="40" y="64" width="4" height="1"/>
  <rect x="46" y="64" width="3" height="1"/>
  <rect x="52" y="64" width="4" height="1"/>
  <rect x="58" y="64" width="3" height="1"/>
  <rect x="62" y="64" width="3" height="1"/>
  <rect x="31" y="65" width="6" height="1"/>
  <rect x="41" y="65" width="2" height="1"/>
  <rect x="46" y="65" width="3" height="1"/>
  <rect x="53" y="65" width="1" height="1"/>
  <rect x="58" y="65" width="3" height="1"/>
  <rect x="62" y="65" width="2" height="1"/>
  <rect x="32" y="66" width="2" height="1"/>
  <rect x="35" y="66" width="3" height="1"/>
  <rect x="46" y="66" width="3" height="1"/>
  <rect x="57" y="66" width="3" height="1"/>
  <rect x="61" y="66" width="2" height="1"/>
  <rect x="33" y="67" width="2" height="1"/>
  <rect x="36" y="67" width="3" height="1"/>
  <rect x="45" y="67" width="5" height="1"/>
  <rect x="56" y="67" width="6" height="1"/>
  <rect x="33" y="68" width="7" height="1"/>
  <rect x="44" y="68" width="7" height="1"/>
  <rect x="55" y="68" width="8" height="1"/>
  <rect x="30" y="69" width="35" height="1"/>
  <rect x="29" y="70" width="37" height="1"/>
  <rect x="29" y="71" width="4" height="1"/>
  <rect x="37" y="71" width="8" height="1"/>
  <rect x="46" y="71" width="3" height="1"/>
  <rect x="50" y="71" width="8" height="1"/>
  <rect x="62" y="71" width="4" height="1"/>
  <rect x="28" y="72" width="3" height="1"/>
  <rect x="40" y="72" width="4" height="1"/>
  <rect x="46" y="72" width="3" height="1"/>
  <rect x="52" y="72" width="3" height="1"/>
  <rect x="64" y="72" width="3" height="1"/>
  <rect x="28" y="73" width="1" height="1"/>
  <rect x="46" y="73" width="3" height="1"/>
  <rect x="66" y="73" width="1" height="1"/>
  <rect x="47" y="74" width="2" height="1"/>
  </g>
</svg>