<svg xmlns="http://www.w3.org/2000/svg" viewBox="0 0 100 100" width="100" height="100">
  <g fill="currentColor">
  <rect x="38" y="30" width="3" height="1"/>
  <rect x="49" y="30" width="3" height="1"/>
  <rect x="37" y="31" width="5" height="1"/>
  <rect x="48" y="31" width="5" height="1"/>
  <rect x="28" y="32" width="3" height="1"/>
  <rect x="36" y="32" width="7" height="1"/>
  <rect x="47" y="32" width="7" height="1"/>
  <rect x="60" y="32" width="3" height="1"/>
  <rect x="27" y="33" width="4" height="1"/>
  <rect x="35" y="33" width="8" height="1"/>
  <rect x="47" y="33" width="8" height="1"/>
  <rect x="59" y="33" width="4" height="1"/>
  <rect x="27" y="34" width="5" height="1"/>
  <rect x="35" y="34" width="2" height="1"/>
  <rect x="39" y="34" width="5" height="1"/>
  <rect x="46" y="34" width="4" height="1"/>
  <rect x="53" y="34" width="3" height="1"/>
  <rect x="58" y="34" width="5" height="1"/>
  <rect x="28" y="35" width="5" height="1"/>
  <rect x="34" y="35" width="3" height="1"/>
  <rect x="40" y="35" width="4" height="1"/>
  <rect x="46" y="35" width="4" height="1"/>
  <rect x="54" y="35" width="2" height="1"/>
  <rect x="57" y="35" width="5" height="1"/>
  <rect x="28" y="36" width="8" height="1"/>
  <rect x="40" y="36" width="4" height="1"/>
  <rect x="47" y="36" width="3" height="1"/>
  <rect x="54" y="36" width="8" height="1"/>
  <rect x="29" y="37" width="7" height="1"/>
  <rect x="40" y="37" width="3" height="1"/>
  <rect x="47" y="37" width="3" height="1"/>
  <rect x="55" y="37" width="7" height="1"/>
  <rect x="29" y="38" width="7" height="1"/>
  <rect x="39" y="38" width="3" height="1"/>
  <rect x="48" y="38" width="4" height="1"/>
  <rect x="55" y="38" width="5" height="1"/>
  <rect x="30" y="39" width="6" height="1"/>
  <rect x="39" y="39" width="3" height="1"/>
  <rect x="49" y="39" width="2" height="1"/>
  <rect x="54" y="39" width="6" height="1"/>
  <rect x="30" y="40" width="6" height="1"/>
  <rect x="54" y="40" width="7" height="1"/>
  <rect x="28" y="41" width="9" height="1"/>
  <rect x="53" y="41" width="9" height="1"/>
  <rect x="28" y="42" width="3" height="1"/>
  <rect x="34" y="42" width="9" height="1"/>
  <rect x="48" y="42" width="8" height="1"/>
  <rect x="59" y="42" width="3" height="1"/>
  <rect x="27" y="43" width="3" height="1"/>
  <rect x="35" y="43" width="8" height="1"/>
  <rect x="47" y="43" width="8" height="1"/>
  <rect x="61" y="43" width="2" height="1"/>
  <rect x="26" y="44" width="3" height="1"/>
  <rect x="35" y="44" width="8" height="1"/>
  <rect x="47" y="44" width="8" height="1"/>
  <rect x="61" y="44" width="3" height="1"/>
  <rect x="26" y="45" width="3" height="1"/>
  <rect x="36" y="45" width="2" height="1"/>
  <rect x="41" y="45" width="2" height="1"/>
  <rect x="47" y="45" width="2" height="1"/>
  <rect x="53" y="45" width="1" height="1"/>
  <rect x="61" y="45" width="3" height="1"/>
  <rect x="26" y="46" width="3" height="1"/>
  <rect x="32" y="46" width="2" height="1"/>
  <rect x="36" y="46" width="1" height="1"/>
  <rect x="41" y="46" width="2" height="1"/>
  <rect x="47" y="46" width="2" height="1"/>
  <rect x="53" y="46" width="1" height="1"/>
  <rect x="56" y="46" width="2" height="1"/>
  <rect x="61" y="46" width="4" height="1"/>
  <rect x="26" y="47" width="8" height="1"/>
  <rect x="36" y="47" width="2" height="1"/>
  <rect x="41" y="47" width="2" height="1"/>
  <rect x="47" y="47" width="2" height="1"/>
  <rect x="53" y="47" width="1" height="1"/>
  <rect x="56" y="47" width="8" height="1"/>
  <rect x="26" y="48" width="8" height="1"/>
  <rect x="36" y="48" width="7" height="1"/>
  <rect x="47" y="48" width="7" height="1"/>
  <rect x="56" y="48" width="8" height="1"/>
  <rect x="27" y="49" width="6" height="1"/>
  <rect x="36" y="49" width="8" height="1"/>
  <rect x="47" y="49" width="7" height="1"/>
  <rect x="57" y="49" width="6" height="1"/>
  <rect x="28" y="50" width="4" height="1"/>
  <rect x="40" y="50" width="9" height="1"/>
  <rect x="58" y="50" width="5" height="1"/>
  <rect x="29" y="51" width="2" height="1"/>
  <rect x="42" y="51" width="6" height="1"/>
  <rect x="59" y="51" width="3" height="1"/>
  <rect x="42" y="52" width="6" height="1"/>
  <rect x="43" y="53" width="5" height="1"/>
  <rect x="42" y="54" width="6" height="1"/>
  <rect x="28" y="55" width="3" height="1"/>
  <rect x="42" y="55" width="7" height="1"/>
  <rect x="58" y="55" width="4" height="1"/>
  <rect x="27" y="56" width="6" height="1"/>
  <rect x="40" y="56" width="11" height="1"/>
  <rect x="57" y="56" width="6" height="1"/>
  <rect x="27" y="57" width="6" height="1"/>
  <rect x="36" y="57" width="7" height="1"/>
  <rect x="47" y="57" width="7" height="1"/>
  <rect x="57" y="57" width="7" height="1"/>
  <rect x="26" y="58" width="8" height="1"/>
  <rect x="36" y="58" width="2" height="1"/>
  <rect x="40" y="58" width="3" height="1"/>
  <rect x="47" y="58" width="3" height="1"/>
  <rect x="52" y="58" width="2" height="1"/>
  <rect x="56" y="58" width="8" height="1"/>
  <rect x="26" y="59" width="8" height="1"/>
  <rect x="36" y="59" width="2" height="1"/>
  <rect x="41" y="59" width="2" height="1"/>
  <rect x="47" y="59" width="2" height="1"/>
  <rect x="52" y="59" width="2" height="1"/>
  <rect x="56" y="59" width="2" height="1"/>
  <rect x="60" y="59" width="4" height="1"/>
  <rect x="26" y="60" width="3" height="1"/>
  <rect x="32" y="60" width="1" height="1"/>
  <rect x="36" y="60" width="1" height="1"/>
  <rect x="41" y="60" width="2" height="1"/>
  <rect x="47" y="60" width="2" height="1"/>
  <rect x="52" y="60" width="2" height="1"/>
  <rect x="57" y="60" width="1" height="1"/>
  <rect x="61" y="60" width="3" height="1"/>
  <rect x="26" y="61" width="3" height="1"/>
  <rect x="36" y="61" width="1" height="1"/>
  <rect x="41" y="61" width="2" height="1"/>
  <rect x="47" y="61" width="2" height="1"/>
  <rect x="52" y="61" width="2" height="1"/>
  <rect x="61" y="61" width="3" height="1"/>
  <rect x="26" y="62" width="3" height="1"/>
  <rect x="35" y="62" width="8" height="1"/>
  <rect x="47" y="62" width="8" height="1"/>
  <rect x="61" y="62" width="2" height="1"/>
  <rect x="27" y="63" width="3" height="1"/>
  <rect x="35" y="63" width="8" height="1"/>
  <rect x="47" y="63" width="9" height="1"/>
  <rect x="60" y="63" width="3" height="1"/>
  <rect x="28" y="64" width="3" height="1"/>
  <rect x="33" y="64" width="9" height="1"/>
  <rect x="52" y="64" width="5" height="1"/>
  <rect x="59" y="64" width="3" height="1"/>
  <rect x="29" y="65" width="8" height="1"/>
  <rect x="53" y="65" width="8" height="1"/>
  <rect x="30" y="66" width="6" height="1"/>
  <rect x="49" y="66" width="1" height="1"/>
  <rect x="54" y="66" width="6" height="1"/>
  <rect x="30" y="67" width="6" height="1"/>
  <rect x="39" y="67" width="3" height="1"/>
  <rect x="48" y="67" width="3" height="1"/>
  <rect x="54" y="67" width="6" height="1"/>
  <rect x="29" y="68" width="6" height="1"/>
  <rect x="39" y="68" width="4" height="1"/>
  <rect x="47" y="68" width="5" height="1"/>
  <rect x="54" y="68" width="7" height="1"/>
  <rect x="28" y="69" width="8" height="1"/>
  <rect x="40" y="69" width="3" height="1"/>
  <rect x="47" y="69" width="3" height="1"/>
  <rect x="54" y="69" width="8" height="1"/>
  <rect x="28" y="70" width="8" height="1"/>
  <rect x="40" y="70" width="4" height="1"/>
  <rect x="46" y="70" width="4" height="1"/>
  <rect x="54" y="70" width="8" height="1"/>
  <rect x="28" y="71" width="5" height="1"/>
  <rect x="34" y="71" width="2" height="1"/>
  <rect x="40" y="71" width="4" height="1"/>
  <rect x="46" y="71" width="4" height="1"/>
  <rect x="53" y="71" width="3" height="1"/>
  <rect x="57" y="71" width="5" height="1"/>
  <rect x="27" y="72" width="5" height="1"/>
  <rect x="35" y="72" width="3" height="1"/>
  <rect x="39" y="72" width="5" height="1"/>
  <rect x="46" y="72" width="5" height="1"/>
  <rect x="52" y="72" width="3" height="1"/>
  <rect x="58" y="72" width="5" height="1"/>
  <rect x="27" y="73" width="4" height="1"/>
  <rect x="35" y="73" width="8" height="1"/>
  <rect x="47" y="73" width="7" height="1"/>
  <rect x="59" y="73" width="4" height="1"/>
  <rect x="28" y="74" width="2" height="1"/>
  <rect x="36" y="74" width="6" height="1"/>
  <rect x="48" y="74" width="5" height="1"/>
  <rect x="60" y="74" width="2" height="1"/>
  <rect x="37" y="75" width="5" height="1"/>
  <rect x="48" y="75" width="5" height="1"/>
  </g>
</svg>