<svg xmlns="http://www.w3.org/2000/svg" viewBox="0 0 100 100" width="100" height="100">
  <g fill="currentColor">
  <rect x="45" y="34" width="1" height="1"/>
  <rect x="44" y="35" width="2" height="1"/>
  <rect x="43" y="36" width="4" height="1"/>
  <rect x="43" y="37" width="4" height="1"/>
  <rect x="42" y="38" width="6" height="1"/>
  <rect x="42" y="39" width="6" height="1"/>
  <rect x="42" y="40" width="6" height="1"/>
  <rect x="42" y="41" width="6" height="1"/>
  <rect x="42" y="42" width="6" height="1"/>
  <rect x="42" y="43" width="6" height="1"/>
  <rect x="34" y="44" width="6" height="1"/>
  <rect x="42" y="44" width="6" height="1"/>
  <rect x="50" y="44" width="6" height="1"/>
  <rect x="32" y="45" width="9" height="1"/>
  <rect x="42" y="45" width="6" height="1"/>
  <rect x="49" y="45" width="9" height="1"/>
  <rect x="30" y="46" width="30" height="1"/>
  <rect x="29" y="47" width="32" height="1"/>
  <rect x="28" y="48" width="7" height="1"/>
  <rect x="40" y="48" width="10" height="1"/>
  <rect x="55" y="48" width="8" height="1"/>
  <rect x="27" y="49" width="6" height="1"/>
  <rect x="41" y="49" width="8" height="1"/>
  <rect x="57" y="49" width="6" height="1"/>
  <rect x="26" y="50" width="7" height="1"/>
  <rect x="42" y="50" width="6" height="1"/>
  <rect x="57" y="50" width="7" height="1"/>
  <rect x="25" y="51" width="7" height="1"/>
  <rect x="42" y="51" width="6" height="1"/>
  <rect x="58" y="51" width="7" height="1"/>
  <rect x="25" y="52" width="7" height="1"/>
  <rect x="42" y="52" width="5" height="1"/>
  <rect x="58" y="52" width="7" height="1"/>
  <rect x="24" y="53" width="9" height="1"/>
  <rect x="38" y="53" width="1" height="1"/>
  <rect x="43" y="53" width="4" height="1"/>
  <rect x="51" y="53" width="2" height="1"/>
  <rect x="57" y="53" width="9" height="1"/>
  <rect x="24" y="54" width="9" height="1"/>
  <rect x="37" y="54" width="2" height="1"/>
  <rect x="43" y="54" width="4" height="1"/>
  <rect x="51" y="54" width="2" height="1"/>
  <rect x="57" y="54" width="9" height="1"/>
  <rect x="24" y="55" width="11" height="1"/>
  <rect x="36" y="55" width="4" height="1"/>
  <rect x="43" y="55" width="4" height="1"/>
  <rect x="51" y="55" width="3" height="1"/>
  <rect x="55" y="55" width="11" height="1"/>
  <rect x="24" y="56" width="15" height="1"/>
  <rect x="43" y="56" width="4" height="1"/>
  <rect x="50" y="56" width="17" height="1"/>
  <rect x="23" y="57" width="16" height="1"/>
  <rect x="43" y="57" width="4" height="1"/>
  <rect x="51" y="57" width="16" height="1"/>
  <rect x="23" y="58" width="16" height="1"/>
  <rect x="43" y="58" width="4" height="1"/>
  <rect x="51" y="58" width="16" height="1"/>
  <rect x="23" y="59" width="15" height="1"/>
  <rect x="43" y="59" width="4" height="1"/>
  <rect x="52" y="59" width="15" height="1"/>
  <rect x="23" y="60" width="7" height="1"/>
  <rect x="32" y="60" width="5" height="1"/>
  <rect x="43" y="60" width="4" height="1"/>
  <rect x="53" y="60" width="6" height="1"/>
  <rect x="60" y="60" width="7" height="1"/>
  <rect x="23" y="61" width="7" height="1"/>
  <rect x="33" y="61" width="2" height="1"/>
  <rect x="43" y="61" width="4" height="1"/>
  <rect x="55" y="61" width="2" height="1"/>
  <rect x="60" y="61" width="7" height="1"/>
  <rect x="23" y="62" width="7" height="1"/>
  <rect x="42" y="62" width="5" height="1"/>
  <rect x="60" y="62" width="7" height="1"/>
  <rect x="23" y="63" width="7" height="1"/>
  <rect x="42" y="63" width="6" height="1"/>
  <rect x="60" y="63" width="7" height="1"/>
  <rect x="23" y="64" width="7" height="1"/>
  <rect x="42" y="64" width="6" height="1"/>
  <rect x="60" y="64" width="7" height="1"/>
  <rect x="23" y="65" width="7" height="1"/>
  <rect x="42" y="65" width="6" height="1"/>
  <rect x="60" y="65" width="7" height="1"/>
  <rect x="23" y="66" width="7" height="1"/>
  <rect x="41" y="66" width="8" height="1"/>
  <rect x="60" y="66" width="7" height="1"/>
  <rect x="23" y="67" width="6" height="1"/>
  <rect x="41" y="67" width="3" height="1"/>
  <rect x="46" y="67" width="3" height="1"/>
  <rect x="60" y="67" width="7" height="1"/>
  <rect x="23" y="68" width="6" height="1"/>
  <rect x="41" y="68" width="3" height="1"/>
  <rect x="46" y="68" width="3" height="1"/>
  <rect x="61" y="68" width="6" height="1"/>
  <rect x="22" y="69" width="7" height="1"/>
  <rect x="40" y="69" width="4" height="1"/>
  <rect x="46" y="69" width="4" height="1"/>
  <rect x="61" y="69" width="6" height="1"/>
  <rect x="22" y="70" width="7" height="1"/>
  <rect x="40" y="70" width="3" height="1"/>
  <rect x="47" y="70" width="3" height="1"/>
  <rect x="61" y="70" width="7" height="1"/>
  <rect x="22" y="71" width="6" height="1"/>
  <rect x="39" y="71" width="4" height="1"/>
  <rect x="47" y="71" width="3" height="1"/>
  <rect x="62" y="71" width="6" height="1"/>
  <rect x="22" y="72" width="6" height="1"/>
  <rect x="39" y="72" width="3" height="1"/>
  <rect x="48" y="72" width="3" height="1"/>
  <rect x="62" y="72" width="6" height="1"/>
  <rect x="22" y="73" width="5" height="1"/>
  <rect x="39" y="73" width="3" height="1"/>
  <rect x="48" y="73" width="3" height="1"/>
  <rect x="63" y="73" width="5" height="1"/>
  <rect x="22" y="74" width="5" height="1"/>
  <rect x="38" y="74" width="3" height="1"/>
  <rect x="49" y="74" width="3" height="1"/>
  <rect x="63" y="74" width="5" height="1"/>
  <rect x="22" y="75" width="4" height="1"/>
  <rect x="38" y="75" width="3" height="1"/>
  <rect x="49" y="75" width="3" height="1"/>
  <rect x="64" y="75" width="4" height="1"/>
  <rect x="22" y="76" width="3" height="1"/>
  <rect x="38" y="76" width="2" height="1"/>
  <rect x="50" y="76" width="3" height="1"/>
  <rect x="65" y="76" width="3" height="1"/>
  <rect x="22" y="77" width="2" height="1"/>
  <rect x="37" y="77" width="2" height="1"/>
  <rect x="51" y="77" width="2" height="1"/>
  <rect x="66" y="77" width="2" height="1"/>
  <rect x="21" y="78" width="3" height="1"/>
  <rect x="36" y="78" width="2" height="1"/>
  <rect x="52" y="78" width="1" height="1"/>
  <rect x="67" y="78" width="2" height="1"/>
  <rect x="21" y="79" width="2" height="1"/>
  <rect x="36" y="79" width="1" height="1"/>
  <rect x="53" y="79" width="1" height="1"/>
  <rect x="67" y="79" width="2" height="1"/>
  <rect x="68" y="80" width="1" height="1"/>
  </g>
</svg>